<svg version="1.1" xmlns="http://www.w3.org/2000/svg" viewBox="0 0 1092.5 655" width="1092.5" height="655">
  <!-- svg-source:excalidraw -->
  
  <defs>
    <style>
      @font-face {
        font-family: "Virgil";
        src: url("https://excalidraw.com/Virgil.woff2");
      }
      @font-face {
        font-family: "Cascadia";
        src: url("https://excalidraw.com/Cascadia.woff2");
      }
    </style>
  </defs>
  <rect x="0" y="0" width="1092.5" height="655" fill="#f3f0ff"></rect><g stroke-linecap="round" transform="translate(496.5 220) rotate(0 91 93.5)"><path d="M89.53 1.82 C119.98 34.04, 148.09 65.73, 179.28 96.1 M93.69 0.91 C124.38 35.77, 157.73 71.18, 182.32 94.41 M180.73 93.73 C158.65 123.68, 134.01 151.46, 92.51 185.96 M183.08 95.21 C146.56 129.96, 112.1 164.77, 93.1 185.79 M88.66 187.89 C55.99 149.84, 20.26 118, -1.17 90.27 M93.65 187.28 C57.56 152.54, 27.58 120.47, -1.71 96 M0.31 92.46 C22.32 76.38, 42.64 48.48, 88.97 1.22 M1.9 93.13 C21.78 70.58, 46.51 47.58, 92.15 -1.62" stroke="#d9480f" stroke-width="2" fill="none"></path></g><g transform="translate(501.5 301) rotate(0 86 12.5)"><text x="86" y="18" font-family="Virgil, Segoe UI Emoji" font-size="20px" fill="#d9480f" text-anchor="middle" style="white-space: pre;" direction="ltr">引擎</text></g><g stroke-linecap="round" transform="translate(496.5 10) rotate(0 91 37)"><path d="M18.5 0 M18.5 0 C62.11 3.32, 95.93 0.1, 163.5 0 M18.5 0 C69.36 -2.8, 122.5 0.39, 163.5 0 M163.5 0 C172.81 2.91, 182.23 3.68, 182 18.5 M163.5 0 C172.9 2.07, 183.31 6.79, 182 18.5 M182 18.5 C179.46 34.19, 178.9 41.96, 182 55.5 M182 18.5 C183.41 29.22, 180.19 39.32, 182 55.5 M182 55.5 C183.44 69.13, 173.86 76.78, 163.5 74 M182 55.5 C177.66 70.6, 172.11 76.25, 163.5 74 M163.5 74 C130.58 70.67, 99.94 77.36, 18.5 74 M163.5 74 C132.68 73.04, 105.53 75.06, 18.5 74 M18.5 74 C4.03 71.22, -1.39 68.31, 0 55.5 M18.5 74 C7.73 73.21, 4.05 63.33, 0 55.5 M0 55.5 C-1.65 48.13, 1.84 30.61, 0 18.5 M0 55.5 C-1.23 46.03, 0.77 39.41, 0 18.5 M0 18.5 C-3.8 9.84, 5.67 3.24, 18.5 0 M0 18.5 C3.94 5.43, 9.15 2.79, 18.5 0" stroke="#5f3dc4" stroke-width="2" fill="none"></path></g><g transform="translate(501.5 34.5) rotate(0 86 12.5)"><text x="86" y="18" font-family="Virgil, Segoe UI Emoji" font-size="20px" fill="#5f3dc4" text-anchor="middle" style="white-space: pre;" direction="ltr">调度器</text></g><g stroke-linecap="round" transform="translate(505.5 571) rotate(0 91 37)"><path d="M18.5 0 M18.5 0 C55.78 -4.15, 97.85 -1.25, 163.5 0 M18.5 0 C54.66 -2.99, 89.26 -1.34, 163.5 0 M163.5 0 C179.07 3.43, 181.36 8.76, 182 18.5 M163.5 0 C178.62 -1.47, 181.38 2.91, 182 18.5 M182 18.5 C186.02 31.12, 183.04 34.5, 182 55.5 M182 18.5 C183.19 30.66, 181.37 46.88, 182 55.5 M182 55.5 C183.12 67.69, 174.09 76.47, 163.5 74 M182 55.5 C183 69.33, 178.15 76.77, 163.5 74 M163.5 74 C129.5 67.87, 98.12 75.24, 18.5 74 M163.5 74 C127.93 74.14, 96.18 74.36, 18.5 74 M18.5 74 C6.21 70.45, 3.1 68.36, 0 55.5 M18.5 74 C8.67 76.67, 4.47 69.09, 0 55.5 M0 55.5 C-1.27 45.55, -2.52 36.23, 0 18.5 M0 55.5 C0.57 41.76, -0.26 29.02, 0 18.5 M0 18.5 C-3.67 7.02, 5.06 0.5, 18.5 0 M0 18.5 C-1.7 5.13, 4.91 -2.76, 18.5 0" stroke="#a61e4d" stroke-width="2" fill="none"></path></g><g transform="translate(510.5 595.5) rotate(0 86 12.5)"><text x="86" y="18" font-family="Virgil, Segoe UI Emoji" font-size="20px" fill="#a61e4d" text-anchor="middle" style="white-space: pre;" direction="ltr">爬虫</text></g><g stroke-linecap="round" transform="translate(103.5 276) rotate(0 91.5 37)"><path d="M18.5 0 M18.5 0 C51.46 -1.17, 87.57 -2.91, 164.5 0 M18.5 0 C60.91 1.47, 103.3 1.29, 164.5 0 M164.5 0 C174.13 -1.09, 184.9 3.19, 183 18.5 M164.5 0 C179.09 -0.71, 179.3 3.09, 183 18.5 M183 18.5 C183.56 29.41, 184.78 34.08, 183 55.5 M183 18.5 C184.51 29.88, 183.07 39.36, 183 55.5 M183 55.5 C179.03 64.53, 180.34 72, 164.5 74 M183 55.5 C183.47 63.38, 179.77 70.13, 164.5 74 M164.5 74 C108.24 67.23, 46.45 72.09, 18.5 74 M164.5 74 C132.62 76.63, 98.62 78.65, 18.5 74 M18.5 74 C7.16 70.34, -0.6 71.78, 0 55.5 M18.5 74 C6.95 73.68, -3.75 72.31, 0 55.5 M0 55.5 C-3.18 47, -1.86 38.82, 0 18.5 M0 55.5 C1.38 42.54, -1.1 31.44, 0 18.5 M0 18.5 C-0.45 3.34, 2.27 3.81, 18.5 0 M0 18.5 C-1.14 8.66, 5.84 4.24, 18.5 0" stroke="#087f5b" stroke-width="2" fill="none"></path></g><g transform="translate(108.5 300.5) rotate(0 86.5 12.5)"><text x="86.5" y="18" font-family="Virgil, Segoe UI Emoji" font-size="20px" fill="#087f5b" text-anchor="middle" style="white-space: pre;" direction="ltr">管道</text></g><g stroke-linecap="round" transform="translate(900.5 273) rotate(0 91 37)"><path d="M18.5 0 M18.5 0 C66.08 0.77, 107.15 5.6, 163.5 0 M18.5 0 C61.34 -1.64, 105.8 0.08, 163.5 0 M163.5 0 C173.41 -1.56, 184.04 5.18, 182 18.5 M163.5 0 C173.07 -1.12, 183.32 8.14, 182 18.5 M182 18.5 C184.2 31.12, 184.89 38.22, 182 55.5 M182 18.5 C183.21 24.87, 180.75 35.91, 182 55.5 M182 55.5 C185.78 69.13, 179.62 72, 163.5 74 M182 55.5 C183.59 70.93, 172.37 76.09, 163.5 74 M163.5 74 C125.73 73.76, 87.42 77.08, 18.5 74 M163.5 74 C116.55 75.97, 71.96 76.22, 18.5 74 M18.5 74 C9.98 77.62, -1.74 66.06, 0 55.5 M18.5 74 C3.05 77.59, 0.43 63.74, 0 55.5 M0 55.5 C1.92 45.93, -2.06 41.37, 0 18.5 M0 55.5 C1.15 46.12, -0.97 35.51, 0 18.5 M0 18.5 C3.32 9.12, 7.43 3.84, 18.5 0 M0 18.5 C-2.52 6.79, 4.99 3.91, 18.5 0" stroke="#1864ab" stroke-width="2" fill="none"></path></g><g transform="translate(905.5 297.5) rotate(0 86 12.5)"><text x="86" y="18" font-family="Virgil, Segoe UI Emoji" font-size="20px" fill="#1864ab" text-anchor="middle" style="white-space: pre;" direction="ltr">下载器</text></g><g stroke-linecap="round"><g transform="translate(589.4069800212695 565) rotate(0 1.4979020609706595 -78.99878613140697)"><path d="M-0.87 -2.72 C-0.72 -29.74, 1.13 -133.67, 1.25 -159.98 M3.86 1.98 C3.73 -24.95, 0.74 -130.71, -0.23 -157.53" stroke="#a61e4d" stroke-width="2" fill="none"></path></g><g transform="translate(589.4069800212695 565) rotate(0 1.4979020609706595 -78.99878613140697)"><path d="M7.02 -127.7 C3.88 -138.47, -0.43 -148.43, -0.29 -156.74 M12.45 -128.17 C6.77 -141.22, 4.16 -149.72, -0.3 -157.51" stroke="#a61e4d" stroke-width="2" fill="none"></path></g><g transform="translate(589.4069800212695 565) rotate(0 1.4979020609706595 -78.99878613140697)"><path d="M-13.49 -127.06 C-10.23 -137.9, -8.12 -148.06, -0.29 -156.74 M-8.06 -127.53 C-6.58 -141.04, -2.03 -149.76, -0.3 -157.51" stroke="#a61e4d" stroke-width="2" fill="none"></path></g></g><g stroke-linecap="round"><g transform="translate(543.5 256) rotate(0 -1.926974562182977 -85.39242727905514)"><path d="M-1.84 -0.89 C-3.28 -29.07, -5.94 -142.06, -6.22 -169.89 M2.36 -3.85 C1.56 -31.46, 0.21 -138.13, -1.02 -166.2" stroke="#a61e4d" stroke-width="2" fill="none"></path></g><g transform="translate(543.5 256) rotate(0 -1.926974562182977 -85.39242727905514)"><path d="M8.71 -141.46 C6.04 -148.54, 4.64 -160.57, -1.64 -162.43 M9.27 -137.62 C6 -146.47, 4.25 -156.31, -3.02 -166.85" stroke="#a61e4d" stroke-width="2" fill="none"></path></g><g transform="translate(543.5 256) rotate(0 -1.926974562182977 -85.39242727905514)"><path d="M-11.8 -140.92 C-6.52 -147.93, 0.04 -160.17, -1.64 -162.43 M-11.24 -137.07 C-7.91 -146.35, -3.04 -156.36, -3.02 -166.85" stroke="#a61e4d" stroke-width="2" fill="none"></path></g></g><g stroke-linecap="round"><g transform="translate(617.5 87) rotate(0 2.424842099472869 80.06890420421956)"><path d="M1.65 0.41 C3.07 27, 4.77 132.24, 5.75 158.23 M-0.91 -1.84 C0.37 25.38, 2.13 135.25, 3.38 161.98" stroke="#a61e4d" stroke-width="2" fill="none"></path></g><g transform="translate(617.5 87) rotate(0 2.424842099472869 80.06890420421956)"><path d="M-7.12 133.75 C-5.42 141.81, -5.9 141.22, 4.76 160.11 M-7.6 132.37 C-5.67 142.35, -2.22 153.13, 3.11 161.55" stroke="#a61e4d" stroke-width="2" fill="none"></path></g><g transform="translate(617.5 87) rotate(0 2.424842099472869 80.06890420421956)"><path d="M13.39 133.15 C10.96 141.57, 6.35 141.11, 4.76 160.11 M12.91 131.77 C7.82 141.76, 4.26 152.75, 3.11 161.55" stroke="#a61e4d" stroke-width="2" fill="none"></path></g></g><g stroke-linecap="round"><g transform="translate(680.5 314) rotate(0 109.99708342701194 0.9108442769944531)"><path d="M-2.17 0.64 C34.5 0.51, 184.73 0.03, 222.16 -0.21 M1.85 -1.49 C37.97 -1.2, 183.52 2.74, 220.01 3.31" stroke="#a61e4d" stroke-width="2" fill="none"></path></g><g transform="translate(680.5 314) rotate(0 109.99708342701194 0.9108442769944531)"><path d="M192.51 13.18 C201.97 10.32, 211.89 2.14, 217.42 3.16 M189.63 13.05 C203.69 10.07, 212.8 4.12, 220.08 3.84" stroke="#a61e4d" stroke-width="2" fill="none"></path></g><g transform="translate(680.5 314) rotate(0 109.99708342701194 0.9108442769944531)"><path d="M192.96 -7.34 C202.33 -2.47, 212.08 -2.91, 217.42 3.16 M190.08 -7.47 C203.66 -2.88, 212.6 -1.26, 220.08 3.84" stroke="#a61e4d" stroke-width="2" fill="none"></path></g></g><g stroke-linecap="round" transform="translate(149.5 125) rotate(0 48.5 29)"><path d="M14.5 0 M14.5 0 C28.97 2, 53.38 -0.74, 82.5 0 M14.5 0 C37.47 -0.69, 54.86 0.11, 82.5 0 M82.5 0 C95.19 -2.78, 99.53 5.97, 97 14.5 M82.5 0 C94.99 1.59, 98.76 6.83, 97 14.5 M97 14.5 C96.9 22.45, 94.26 37.5, 97 43.5 M97 14.5 C96.21 23.17, 94.86 31.73, 97 43.5 M97 43.5 C93.18 55.37, 88.94 59.96, 82.5 58 M97 43.5 C97.21 54.87, 94.27 54.69, 82.5 58 M82.5 58 C57.76 54.78, 33.65 55.21, 14.5 58 M82.5 58 C61.95 59.08, 43.13 58.45, 14.5 58 M14.5 58 C8.38 60.41, 1.64 55.7, 0 43.5 M14.5 58 C8.47 59.61, 0.85 57.07, 0 43.5 M0 43.5 C1.37 30.91, -1.03 26.38, 0 14.5 M0 43.5 C0.9 33.33, 0.67 23.72, 0 14.5 M0 14.5 C2.9 3.52, 7.8 -1.09, 14.5 0 M0 14.5 C3.24 8.12, 5.72 -1.77, 14.5 0" stroke="#087f5b" stroke-width="2" fill="none"></path></g><g transform="translate(154.5 141.5) rotate(0 43.5 12.5)"><text x="43.5" y="18" font-family="Virgil, Segoe UI Emoji" font-size="20px" fill="#087f5b" text-anchor="middle" style="white-space: pre;" direction="ltr">Redis</text></g><g stroke-linecap="round" transform="translate(287 126) rotate(0 52 30)"><path d="M15 0 M15 0 C34.64 2.39, 65.77 2.93, 89 0 M15 0 C39.55 -0.57, 68.22 -1.93, 89 0 M89 0 C99.51 -2.38, 105.96 3.6, 104 15 M89 0 C96.79 4.15, 105.97 4.3, 104 15 M104 15 C103.8 26.41, 105.1 37.5, 104 45 M104 15 C102.12 26.07, 103.63 39.03, 104 45 M104 45 C106.46 56.39, 96.94 62.06, 89 60 M104 45 C100.81 58.63, 98.67 64.18, 89 60 M89 60 C72.1 63.57, 55.57 56.21, 15 60 M89 60 C66.47 56.83, 40.85 60.52, 15 60 M15 60 C3.61 60.26, -2.77 54.69, 0 45 M15 60 C7.65 56.18, -0.83 58.32, 0 45 M0 45 C1.66 35.56, 0.14 33.78, 0 15 M0 45 C1.27 39.41, -0.88 31.13, 0 15 M0 15 C2.01 7.89, 7.04 3.73, 15 0 M0 15 C-0.91 2.12, 0.96 1.22, 15 0" stroke="#087f5b" stroke-width="2" fill="none"></path></g><g transform="translate(292 143.5) rotate(0 47 12.5)"><text x="47" y="18" font-family="Virgil, Segoe UI Emoji" font-size="20px" fill="#087f5b" text-anchor="middle" style="white-space: pre;" direction="ltr">MongoDB</text></g><g stroke-linecap="round" transform="translate(10 125) rotate(0 48.5 29)"><path d="M14.5 0 M14.5 0 C44.38 -0.86, 66.25 -1.96, 82.5 0 M14.5 0 C38.82 0.81, 64.83 -1.13, 82.5 0 M82.5 0 C95.77 1.71, 96.39 8.19, 97 14.5 M82.5 0 C91.4 -1.54, 96.89 4.7, 97 14.5 M97 14.5 C94.35 27.45, 93.93 32.64, 97 43.5 M97 14.5 C97.95 22.19, 98.29 30.55, 97 43.5 M97 43.5 C100.16 52.88, 95.8 54.95, 82.5 58 M97 43.5 C95.36 53.29, 91.77 62.06, 82.5 58 M82.5 58 C59.79 54.59, 45.97 54.78, 14.5 58 M82.5 58 C61.99 56.14, 41.06 58.68, 14.5 58 M14.5 58 C1.51 57.28, 2.89 49.42, 0 43.5 M14.5 58 C8.97 61.98, 2.53 49.44, 0 43.5 M0 43.5 C-1.84 35.64, 1.88 26.15, 0 14.5 M0 43.5 C1.92 37.45, 2.34 28.97, 0 14.5 M0 14.5 C-2.5 1.32, 5.89 2.04, 14.5 0 M0 14.5 C-1.85 5.54, 6.09 -3.27, 14.5 0" stroke="#087f5b" stroke-width="2" fill="none"></path></g><g transform="translate(15 141.5) rotate(0 43.5 12.5)"><text x="43.5" y="18" font-family="Virgil, Segoe UI Emoji" font-size="20px" fill="#087f5b" text-anchor="middle" style="white-space: pre;" direction="ltr">MySQL</text></g><g stroke-linecap="round"><g transform="translate(123.5 283) rotate(0 -30.68489725738766 -54.07551135867834)"><path d="M0.96 -1.04 C-9.68 -18.76, -52.15 -89.62, -62.33 -107.11 M-1.97 -4.08 C-11.88 -21.33, -47.19 -87.62, -57.19 -104.08" stroke="#a61e4d" stroke-width="2" fill="none"></path></g><g transform="translate(123.5 283) rotate(0 -30.68489725738766 -54.07551135867834)"><path d="M-35.87 -87.91 C-43.89 -91.43, -50.27 -97.25, -58.09 -100.63 M-36.07 -85.1 C-40.46 -89.39, -46.03 -95.48, -56.77 -105.23" stroke="#a61e4d" stroke-width="2" fill="none"></path></g><g transform="translate(123.5 283) rotate(0 -30.68489725738766 -54.07551135867834)"><path d="M-53.74 -77.81 C-55.4 -85.01, -55.49 -94.39, -58.09 -100.63 M-53.94 -75.01 C-53.78 -81.88, -55 -90.43, -56.77 -105.23" stroke="#a61e4d" stroke-width="2" fill="none"></path></g></g><g stroke-linecap="round"><g transform="translate(192.76994175740697 275) rotate(0 0.08919494386208271 -47.29157893806695)"><path d="M-2.73 -0.56 C-2.66 -16.51, 2.27 -79.01, 2.91 -94.02 M0.98 -3.34 C0.65 -19.05, 2.09 -75.7, 1.86 -90.94" stroke="#a61e4d" stroke-width="2" fill="none"></path></g><g transform="translate(192.76994175740697 275) rotate(0 0.08919494386208271 -47.29157893806695)"><path d="M11.13 -59.57 C6.23 -73.28, 7.21 -85.23, -0.62 -88.06 M13.02 -63.39 C10.66 -68.31, 7.09 -75.25, 0.87 -91.74" stroke="#a61e4d" stroke-width="2" fill="none"></path></g><g transform="translate(192.76994175740697 275) rotate(0 0.08919494386208271 -47.29157893806695)"><path d="M-9.39 -59.71 C-6.32 -72.96, 2.62 -84.86, -0.62 -88.06 M-7.5 -63.52 C-5.45 -68.01, -4.6 -74.92, 0.87 -91.74" stroke="#a61e4d" stroke-width="2" fill="none"></path></g></g><g stroke-linecap="round"><g transform="translate(251.84899357159895 271.00000000000006) rotate(0 45.786596386390954 -42.70051410347227)"><path d="M-0.46 -0.29 C14.3 -14.63, 75.1 -71.15, 90.08 -85.11 M-4.15 -2.92 C11.41 -16.96, 79.18 -69.08, 95.73 -82.08" stroke="#a61e4d" stroke-width="2" fill="none"></path></g><g transform="translate(251.84899357159895 271.00000000000006) rotate(0 45.786596386390954 -42.70051410347227)"><path d="M79.36 -58.64 C83.67 -68.53, 90.84 -72.14, 94.68 -82.32 M78.57 -54.82 C87.57 -64, 90.6 -73.39, 94 -80.99" stroke="#a61e4d" stroke-width="2" fill="none"></path></g><g transform="translate(251.84899357159895 271.00000000000006) rotate(0 45.786596386390954 -42.70051410347227)"><path d="M66.76 -74.84 C75.63 -78.96, 87.26 -76.84, 94.68 -82.32 M65.96 -71.01 C79.38 -74.43, 86.93 -78.01, 94 -80.99" stroke="#a61e4d" stroke-width="2" fill="none"></path></g></g><g stroke-linecap="round"><g transform="translate(489.118006447345 317.01026806925114) rotate(0 -99.06153750923278 -0.9788581739290123)"><path d="M-0.39 2.47 C-33.26 1.32, -163.86 -4.12, -196.59 -4.43 M-4.05 1.35 C-37.16 1.67, -165.47 -1.31, -197.73 -2.12" stroke="#a61e4d" stroke-width="2" fill="none"></path></g><g transform="translate(489.118006447345 317.01026806925114) rotate(0 -99.06153750923278 -0.9788581739290123)"><path d="M-165.78 -8.83 C-181.78 -6.11, -183.75 -7.62, -199.81 -0.99 M-168.81 -10.35 C-181.28 -9.68, -189.76 -5.18, -199.24 -4.03" stroke="#a61e4d" stroke-width="2" fill="none"></path></g><g transform="translate(489.118006447345 317.01026806925114) rotate(0 -99.06153750923278 -0.9788581739290123)"><path d="M-166.26 11.69 C-182.47 7.79, -184.29 -0.34, -199.81 -0.99 M-169.29 10.16 C-181.7 3.1, -190 -0.13, -199.24 -4.03" stroke="#a61e4d" stroke-width="2" fill="none"></path></g></g></svg>