<svg version="1.1" xmlns="http://www.w3.org/2000/svg" viewBox="0 0 1446 591" width="1446" height="591">
  <!-- svg-source:excalidraw -->
  
  <defs>
    <style>
      @font-face {
        font-family: "Virgil";
        src: url("https://excalidraw.com/Virgil.woff2");
      }
      @font-face {
        font-family: "Cascadia";
        src: url("https://excalidraw.com/Cascadia.woff2");
      }
    </style>
  </defs>
  <rect x="0" y="0" width="1446" height="591" fill="#f3f0ff"></rect><g stroke-linecap="round" transform="translate(10 79.5) rotate(0 91 37)"><path d="M18.5 0 M18.5 0 C62.13 1.75, 94.51 2.2, 163.5 0 M18.5 0 C76.74 -0.6, 131.04 0.92, 163.5 0 M163.5 0 C172.68 -1.4, 182.37 4.09, 182 18.5 M163.5 0 C177.51 2.84, 185.01 8.03, 182 18.5 M182 18.5 C182.26 34.79, 183.64 43.86, 182 55.5 M182 18.5 C179.69 26.87, 180.22 34.99, 182 55.5 M182 55.5 C182.82 70.79, 172.74 71.17, 163.5 74 M182 55.5 C186.35 66.02, 174.59 73.52, 163.5 74 M163.5 74 C126.29 68.21, 96.01 71.15, 18.5 74 M163.5 74 C133.36 72.11, 99.69 72.17, 18.5 74 M18.5 74 C6.8 77.35, 2.94 68.24, 0 55.5 M18.5 74 C8.95 76.26, 3.29 66.73, 0 55.5 M0 55.5 C-1.56 40.23, -0.22 26.44, 0 18.5 M0 55.5 C0.27 47, -0.6 36.75, 0 18.5 M0 18.5 C2.37 8.15, 4.93 -1.46, 18.5 0 M0 18.5 C1.15 8.03, 4.48 -1.17, 18.5 0" stroke="#a61e4d" stroke-width="2" fill="none"></path></g><g transform="translate(15 104) rotate(0 86 12.5)"><text x="86" y="18" font-family="Virgil, Segoe UI Emoji" font-size="20px" fill="#a61e4d" text-anchor="middle" style="white-space: pre;" direction="ltr">爬虫</text></g><g stroke-linecap="round" transform="translate(424 17) rotate(0 91 93.5)"><path d="M95.39 0.53 C109.24 15.82, 124.73 37.12, 182.15 95.14 M92.4 -0.87 C126.56 35.6, 159.63 71.15, 181 92.12 M182.55 91.59 C153.46 130.2, 114.93 161.94, 88.78 184.87 M181.45 92.26 C147.8 126.93, 116.63 162.12, 92.69 187.95 M94.35 183.42 C69.65 163.44, 47.06 144.23, -1.44 91.73 M90.66 187.88 C66.47 161.12, 40.21 134.6, -0.09 94.38 M0.54 91.2 C34.33 61.51, 64.68 27.79, 91.52 1.42 M1.43 92.19 C35.15 55.34, 70.74 20.8, 92.88 0.88" stroke="#d9480f" stroke-width="2" fill="none"></path></g><g transform="translate(429 98) rotate(0 86 12.5)"><text x="86" y="18" font-family="Virgil, Segoe UI Emoji" font-size="20px" fill="#d9480f" text-anchor="middle" style="white-space: pre;" direction="ltr">引擎</text></g><g transform="translate(221 80.5) rotate(0 83 14)"><text x="0" y="21" font-family="Virgil, Segoe UI Emoji" font-size="20px" fill="#a61e4d" text-anchor="start" style="white-space: pre;" direction="ltr">将 url 提交给引擎</text></g><g stroke-linecap="round" transform="translate(786 72.5) rotate(0 91 37)"><path d="M18.5 0 M18.5 0 C72.64 -1.68, 129.69 -4.06, 163.5 0 M18.5 0 C48.55 2.67, 75.31 3.39, 163.5 0 M163.5 0 C173.62 3.19, 183.93 2.54, 182 18.5 M163.5 0 C178.27 1.24, 179.16 3.48, 182 18.5 M182 18.5 C178.28 26.41, 180.88 38.41, 182 55.5 M182 18.5 C182.28 30.6, 181.52 47.08, 182 55.5 M182 55.5 C182.82 68.17, 177.75 72.52, 163.5 74 M182 55.5 C179.46 67.35, 176.88 77.67, 163.5 74 M163.5 74 C116.76 71.08, 68.84 72.84, 18.5 74 M163.5 74 C104.64 74.37, 48.58 73.36, 18.5 74 M18.5 74 C5.33 74.29, 3.8 64.84, 0 55.5 M18.5 74 C7.18 70.8, 3.17 71.62, 0 55.5 M0 55.5 C-0.19 39.21, -3.72 24.55, 0 18.5 M0 55.5 C-0.78 41.4, 0.48 26.17, 0 18.5 M0 18.5 C-1.09 8.76, 4.31 -1.05, 18.5 0 M0 18.5 C3.78 3.68, 7.53 -0.39, 18.5 0" stroke="#5f3dc4" stroke-width="2" fill="none"></path></g><g transform="translate(791 97) rotate(0 86 12.5)"><text x="86" y="18" font-family="Virgil, Segoe UI Emoji" font-size="20px" fill="#5f3dc4" text-anchor="middle" style="white-space: pre;" direction="ltr">调度器</text></g><g stroke-linecap="round" transform="translate(1254 432.5) rotate(0 91 37)"><path d="M18.5 0 M18.5 0 C68.77 0.8, 124.68 3.75, 163.5 0 M18.5 0 C49.94 -0.29, 83.34 3.49, 163.5 0 M163.5 0 C173.18 0.44, 183.55 7.42, 182 18.5 M163.5 0 C176.13 -2.14, 182.27 9.23, 182 18.5 M182 18.5 C178.26 31.04, 182.29 40.28, 182 55.5 M182 18.5 C182.01 29.55, 183.29 43.99, 182 55.5 M182 55.5 C185.71 71.37, 179.57 77.14, 163.5 74 M182 55.5 C179.19 67.71, 171.99 75.38, 163.5 74 M163.5 74 C131.42 76.86, 101.34 75.25, 18.5 74 M163.5 74 C107.3 72.87, 52.59 72.52, 18.5 74 M18.5 74 C9.2 73.02, -0.34 65.34, 0 55.5 M18.5 74 C4.75 75.18, 3.69 63.39, 0 55.5 M0 55.5 C-0.02 45.14, -1.12 30.17, 0 18.5 M0 55.5 C1.53 44.34, -1.31 28.62, 0 18.5 M0 18.5 C2.8 7.45, 6.93 2.87, 18.5 0 M0 18.5 C-4.4 2.99, 3.76 1.74, 18.5 0" stroke="#1864ab" stroke-width="2" fill="none"></path></g><g transform="translate(1259 457) rotate(0 86 12.5)"><text x="86" y="18" font-family="Virgil, Segoe UI Emoji" font-size="20px" fill="#1864ab" text-anchor="middle" style="white-space: pre;" direction="ltr">下载器</text></g><g stroke-linecap="round" transform="translate(1223 10) rotate(0 91 93.5)"><path d="M91.28 -0.34 C126.61 35.19, 155.9 63.73, 184.73 97.58 M90.58 -1.38 C129.21 37.66, 163.35 75.07, 180.05 92.55 M184.22 96.3 C143.45 126.92, 108.3 163.7, 95.76 184.31 M181.41 92.91 C151.94 124.28, 119.96 151.83, 91.62 185.16 M92.47 183.84 C58.07 156.96, 30.61 123.27, 3.41 96.47 M93.61 188.83 C57.75 155.6, 28.04 126.39, -1.96 94.92 M-3.93 96.13 C26.23 67.78, 52.32 34.48, 92.02 -3.53 M-1.07 95.74 C32.12 60.19, 64.92 26.82, 90.87 -0.55" stroke="#d9480f" stroke-width="2" fill="none"></path></g><g transform="translate(1228 91) rotate(0 86 12.5)"><text x="86" y="18" font-family="Virgil, Segoe UI Emoji" font-size="20px" fill="#d9480f" text-anchor="middle" style="white-space: pre;" direction="ltr">引擎</text></g><g stroke-linecap="round" transform="translate(742 364) rotate(0 91 93.5)"><path d="M89.55 -1.93 C120.61 37.09, 159.28 68.65, 181.82 92.57 M93.06 -1.95 C120.64 26.01, 149.23 58.24, 183.15 94.53 M180.48 93.04 C160.46 118.9, 128.77 147.77, 89.63 184.9 M182.14 93.55 C163.17 113.03, 145.46 132.26, 91.95 188.64 M92.55 189.06 C67.57 161.48, 45.27 138.86, 2.45 97.57 M93.99 187.71 C69.93 160.32, 46.01 138.66, 0.43 95.33 M-0.68 93.28 C23.02 66.07, 54.24 40.9, 92.26 -1.84 M-0.44 94.77 C34.17 58.66, 65.65 25.26, 93.31 -1.83" stroke="#d9480f" stroke-width="2" fill="none"></path></g><g transform="translate(747 445) rotate(0 86 12.5)"><text x="86" y="18" font-family="Virgil, Segoe UI Emoji" font-size="20px" fill="#d9480f" text-anchor="middle" style="white-space: pre;" direction="ltr">引擎</text></g><g stroke-linecap="round" transform="translate(208.5 419.5) rotate(0 91.5 37)"><path d="M18.5 0 M18.5 0 C50.9 -5.34, 86.8 1.79, 164.5 0 M18.5 0 C55.17 1.37, 95.81 3.22, 164.5 0 M164.5 0 C180.02 -3.63, 181.73 5.11, 183 18.5 M164.5 0 C177.52 2.56, 180.31 3.47, 183 18.5 M183 18.5 C185.49 31.23, 181.18 41.21, 183 55.5 M183 18.5 C185.18 26.9, 185.52 38.16, 183 55.5 M183 55.5 C181.41 68.72, 173.39 72.3, 164.5 74 M183 55.5 C182.62 63.38, 173.81 75.87, 164.5 74 M164.5 74 C127.89 70.37, 84.41 69.84, 18.5 74 M164.5 74 C129.24 74.99, 99.7 73.94, 18.5 74 M18.5 74 C4.85 76.65, -2.68 67.7, 0 55.5 M18.5 74 C2.7 74, -1.52 69.52, 0 55.5 M0 55.5 C3.29 38.14, -2.93 28.84, 0 18.5 M0 55.5 C-0.74 39.33, 1.18 25.49, 0 18.5 M0 18.5 C-0.14 7.82, 3.02 3.77, 18.5 0 M0 18.5 C-3.2 9.8, 10.74 0.97, 18.5 0" stroke="#087f5b" stroke-width="2" fill="none"></path></g><g transform="translate(213.5 444) rotate(0 86.5 12.5)"><text x="86.5" y="18" font-family="Virgil, Segoe UI Emoji" font-size="20px" fill="#087f5b" text-anchor="middle" style="white-space: pre;" direction="ltr">管道</text></g><g stroke-linecap="round"><g transform="translate(195 114.80570174960212) rotate(0 114.79439040989195 -1.8262900049678592)"><path d="M-1.29 0.89 C35.98 0.62, 187.21 0.6, 225.94 -0.28 M3.21 -1.1 C41.09 -2.32, 192.98 -4.26, 230.88 -4.54" stroke="#a61e4d" stroke-width="2" fill="none"></path></g><g transform="translate(195 114.80570174960212) rotate(0 114.79439040989195 -1.8262900049678592)"><path d="M204.07 2.17 C215.41 5.73, 220.28 -1.97, 234.52 -7.93 M202.05 4.74 C207.77 5.54, 213.53 1.71, 231.27 -5.14" stroke="#a61e4d" stroke-width="2" fill="none"></path></g><g transform="translate(195 114.80570174960212) rotate(0 114.79439040989195 -1.8262900049678592)"><path d="M203.85 -18.35 C215.47 -6.93, 220.42 -6.78, 234.52 -7.93 M201.83 -15.78 C207.95 -10.8, 213.75 -10.45, 231.27 -5.14" stroke="#a61e4d" stroke-width="2" fill="none"></path></g></g><g stroke-linecap="round"><g transform="translate(610 114.5) rotate(0 85.6478832263499 -2.5287808615714766)"><path d="M-2.54 1.89 C26.57 0.67, 144.38 -5.27, 173.84 -6.94 M1.27 0.44 C29.98 -0.41, 142.53 -2.72, 170.97 -3.83" stroke="#a61e4d" stroke-width="2" fill="none"></path></g><g transform="translate(610 114.5) rotate(0 85.6478832263499 -2.5287808615714766)"><path d="M145.78 5.58 C149.24 3.61, 155.04 -2.09, 172.53 -7.6 M141.78 6.05 C154.4 2.21, 165.3 0.26, 171.47 -5.16" stroke="#a61e4d" stroke-width="2" fill="none"></path></g><g transform="translate(610 114.5) rotate(0 85.6478832263499 -2.5287808615714766)"><path d="M145.19 -14.93 C148.87 -11.35, 154.82 -11.51, 172.53 -7.6 M141.19 -14.46 C153.66 -10.83, 164.78 -5.31, 171.47 -5.16" stroke="#a61e4d" stroke-width="2" fill="none"></path></g></g><g stroke-linecap="round"><g transform="translate(971 104.21657159766892) rotate(0 127.08312712593693 1.9876071238254553)"><path d="M2.44 -1.62 C43.78 -0.38, 206.91 5, 248.71 5.6 M0.32 3.67 C42.45 4.24, 211.79 1.25, 253.84 1.28" stroke="#a61e4d" stroke-width="2" fill="none"></path></g><g transform="translate(971 104.21657159766892) rotate(0 127.08312712593693 1.9876071238254553)"><path d="M223.44 8.47 C236.84 11.05, 240.8 6.41, 254.21 -2.69 M225.72 10.98 C232.4 9.61, 236.84 6.81, 255.18 3.01" stroke="#a61e4d" stroke-width="2" fill="none"></path></g><g transform="translate(971 104.21657159766892) rotate(0 127.08312712593693 1.9876071238254553)"><path d="M223.24 -12.05 C236.44 -2.8, 240.46 -0.77, 254.21 -2.69 M225.52 -9.54 C231.85 -6.36, 236.33 -4.61, 255.18 3.01" stroke="#a61e4d" stroke-width="2" fill="none"></path></g></g><g stroke-linecap="round"><g transform="translate(1315.1081646315988 193.3174352411595) rotate(0 9.347415923173457 117.37141621066041)"><path d="M-2.41 -1.99 C-0.12 37.21, 11.97 193.71, 15.65 232.88 M1.47 3.1 C4.51 43.04, 18.17 197.84, 21.11 236.73" stroke="#a61e4d" stroke-width="2" fill="none"></path></g><g transform="translate(1315.1081646315988 193.3174352411595) rotate(0 9.347415923173457 117.37141621066041)"><path d="M5.72 207 C13.31 222.97, 18.13 231.25, 18.01 237.27 M9.39 210.64 C14.3 216.59, 15.89 225.17, 19.59 234.8" stroke="#a61e4d" stroke-width="2" fill="none"></path></g><g transform="translate(1315.1081646315988 193.3174352411595) rotate(0 9.347415923173457 117.37141621066041)"><path d="M26.17 205.31 C26.23 221.55, 23.55 230.45, 18.01 237.27 M29.84 208.95 C28.19 215.56, 23.21 224.68, 19.59 234.8" stroke="#a61e4d" stroke-width="2" fill="none"></path></g></g><g stroke-linecap="round"><g transform="translate(1251 463.6510027570157) rotate(0 -163.5316898624468 -2.3818561744054705)"><path d="M-1.25 -0.55 C-55.7 -1.04, -273.85 -3.56, -327.72 -4.21 M3.27 -3.32 C-51.53 -3.4, -275.65 -1.86, -330.34 -1.75" stroke="#a61e4d" stroke-width="2" fill="none"></path></g><g transform="translate(1251 463.6510027570157) rotate(0 -163.5316898624468 -2.3818561744054705)"><path d="M-302.98 -13.15 C-312.82 -5.99, -320.66 -8.53, -330.76 -5.47 M-302.62 -12.48 C-313.35 -8.31, -322.7 -4.43, -329.33 -3" stroke="#a61e4d" stroke-width="2" fill="none"></path></g><g transform="translate(1251 463.6510027570157) rotate(0 -163.5316898624468 -2.3818561744054705)"><path d="M-302.89 7.37 C-312.56 9.1, -320.42 1.13, -330.76 -5.47 M-302.52 8.04 C-313 4.87, -322.39 1.41, -329.33 -3" stroke="#a61e4d" stroke-width="2" fill="none"></path></g></g><g stroke-linecap="round"><g transform="translate(737.7043809845879 457.1709387354431) rotate(0 -169.7598805539228 1.5090250633593314)"><path d="M-1.23 -1.32 C-58.63 -0.83, -284.64 3.54, -342.03 4.34 M3.3 4.13 C-54.45 3.62, -284.29 -0.59, -342.82 -0.17" stroke="#a61e4d" stroke-width="2" fill="none"></path></g><g transform="translate(737.7043809845879 457.1709387354431) rotate(0 -169.7598805539228 1.5090250633593314)"><path d="M-316.45 -6.41 C-324.01 -7.86, -336.09 -5.92, -339.28 2.39 M-313.14 -9.15 C-322.15 -7.35, -330.32 -4.57, -341.03 -0.39" stroke="#a61e4d" stroke-width="2" fill="none"></path></g><g transform="translate(737.7043809845879 457.1709387354431) rotate(0 -169.7598805539228 1.5090250633593314)"><path d="M-316.6 14.11 C-324.31 4.76, -336.33 -1.2, -339.28 2.39 M-313.29 11.37 C-322.56 7.24, -330.68 4.08, -341.03 -0.39" stroke="#a61e4d" stroke-width="2" fill="none"></path></g></g><g stroke-linecap="round"><g transform="translate(824.5573273805103 356.3290450638233) rotate(0 -316.34863708838776 -100.23186993739)"><path d="M2.64 2.72 C-103.12 -31.04, -527.24 -169.07, -634.12 -203.18 M0.63 1.72 C-105.38 -31.71, -529.69 -167.3, -635.34 -200.83" stroke="#a61e4d" stroke-width="2" fill="none"></path></g><g transform="translate(824.5573273805103 356.3290450638233) rotate(0 -316.34863708838776 -100.23186993739)"><path d="M-601.48 -199.35 C-618.22 -204.86, -625.95 -199.08, -638.27 -199.92 M-605.6 -203.5 C-613.49 -200.59, -622.64 -199.9, -635.28 -202.54" stroke="#a61e4d" stroke-width="2" fill="none"></path></g><g transform="translate(824.5573273805103 356.3290450638233) rotate(0 -316.34863708838776 -100.23186993739)"><path d="M-607.71 -179.8 C-622.39 -191.62, -628.15 -192.03, -638.27 -199.92 M-611.83 -183.95 C-618.32 -186.36, -625.74 -191.08, -635.28 -202.54" stroke="#a61e4d" stroke-width="2" fill="none"></path></g></g><g stroke-linecap="round" transform="translate(19 422) rotate(0 48.5 29)"><path d="M14.5 0 M14.5 0 C28.05 -2.13, 45.37 -1.91, 82.5 0 M14.5 0 C41.51 -1.69, 65.24 -3.1, 82.5 0 M82.5 0 C95.94 -3.17, 96.07 3.21, 97 14.5 M82.5 0 C90.99 -3.41, 99.98 9.1, 97 14.5 M97 14.5 C96.7 21.41, 97.73 37.7, 97 43.5 M97 14.5 C99.21 19.41, 99.16 25.19, 97 43.5 M97 43.5 C94.08 50.92, 90.88 59.57, 82.5 58 M97 43.5 C97.83 54.48, 92.62 57.6, 82.5 58 M82.5 58 C61.66 58.14, 46.2 56.43, 14.5 58 M82.5 58 C59.92 58.05, 37.68 56.15, 14.5 58 M14.5 58 C1.69 56.31, 0.99 52.11, 0 43.5 M14.5 58 C2.73 60.2, 3.71 50.02, 0 43.5 M0 43.5 C3.47 38.45, 2.56 24.18, 0 14.5 M0 43.5 C-1.62 37.52, 0.54 26.8, 0 14.5 M0 14.5 C3.02 4.07, 6.12 2.72, 14.5 0 M0 14.5 C-0.82 4.73, 1.13 -1.9, 14.5 0" stroke="#087f5b" stroke-width="2" fill="none"></path></g><g transform="translate(24 438.5) rotate(0 43.5 12.5)"><text x="43.5" y="18" font-family="Virgil, Segoe UI Emoji" font-size="20px" fill="#087f5b" text-anchor="middle" style="white-space: pre;" direction="ltr">Redis</text></g><g stroke-linecap="round" transform="translate(20.5 314) rotate(0 52 30)"><path d="M15 0 M15 0 C40.22 -0.89, 66.89 1.08, 89 0 M15 0 C41.82 -1.55, 73.87 -1.19, 89 0 M89 0 C98.07 -1.62, 102.97 2.03, 104 15 M89 0 C101.98 4.27, 106.38 4.54, 104 15 M104 15 C104.75 24.54, 100.36 31.85, 104 45 M104 15 C106.19 20.32, 103.06 27.47, 104 45 M104 45 C102.71 56.57, 99.72 61.14, 89 60 M104 45 C104.45 54.6, 96.92 62.76, 89 60 M89 60 C64.94 58.43, 45.65 59.94, 15 60 M89 60 C67.85 58.23, 43.28 59.21, 15 60 M15 60 C5.99 58.95, -1.83 56.91, 0 45 M15 60 C8.71 56.86, 0.36 51.64, 0 45 M0 45 C1.68 36.6, -2.26 33.42, 0 15 M0 45 C1.26 34.38, 1.9 27.23, 0 15 M0 15 C1.29 7.72, 4.29 -0.09, 15 0 M0 15 C-3.71 3.1, 1.51 4.02, 15 0" stroke="#087f5b" stroke-width="2" fill="none"></path></g><g transform="translate(25.5 331.5) rotate(0 47 12.5)"><text x="47" y="18" font-family="Virgil, Segoe UI Emoji" font-size="20px" fill="#087f5b" text-anchor="middle" style="white-space: pre;" direction="ltr">MongoDB</text></g><g stroke-linecap="round" transform="translate(25.5 523) rotate(0 48.5 29)"><path d="M14.5 0 M14.5 0 C35.33 0.95, 52.73 2.14, 82.5 0 M14.5 0 C34.95 -0.26, 51.17 0.51, 82.5 0 M82.5 0 C91.14 -2.97, 99.59 8.54, 97 14.5 M82.5 0 C94.54 -0.46, 93.53 4.56, 97 14.5 M97 14.5 C93.51 24.19, 94.17 30.57, 97 43.5 M97 14.5 C96.02 20.37, 96.84 29.28, 97 43.5 M97 43.5 C97.72 54.31, 92.56 57.65, 82.5 58 M97 43.5 C94.92 55.93, 92.29 53.95, 82.5 58 M82.5 58 C63.38 57.35, 41.29 58.04, 14.5 58 M82.5 58 C60.28 55.92, 41.71 56.23, 14.5 58 M14.5 58 C3 59.91, 3.23 50.43, 0 43.5 M14.5 58 C5.19 54.64, -3.17 56.67, 0 43.5 M0 43.5 C-2.11 34.27, -0.71 17.89, 0 14.5 M0 43.5 C1.26 32.37, 0.39 23.36, 0 14.5 M0 14.5 C-0.71 4.74, 1.61 -1.65, 14.5 0 M0 14.5 C-3.49 8.86, 5.82 -1.94, 14.5 0" stroke="#087f5b" stroke-width="2" fill="none"></path></g><g transform="translate(30.5 539.5) rotate(0 43.5 12.5)"><text x="43.5" y="18" font-family="Virgil, Segoe UI Emoji" font-size="20px" fill="#087f5b" text-anchor="middle" style="white-space: pre;" direction="ltr">MySQL</text></g><g stroke-linecap="round"><g transform="translate(198.2470652658492 448.5629263282508) rotate(0 -33.735713519602996 -45.596423925866134)"><path d="M1.25 2.69 C-9.64 -12.71, -55.33 -77.69, -67.45 -93.88 M-1.52 1.68 C-12.43 -13.26, -57.99 -75.51, -68.72 -91.24" stroke="#a61e4d" stroke-width="2" fill="none"></path></g><g transform="translate(198.2470652658492 448.5629263282508) rotate(0 -33.735713519602996 -45.596423925866134)"><path d="M-40.19 -71.64 C-51.99 -81, -58.37 -83.25, -70.07 -90.06 M-44.17 -74.63 C-51.36 -80.31, -63.65 -85.33, -70.42 -90.49" stroke="#a61e4d" stroke-width="2" fill="none"></path></g><g transform="translate(198.2470652658492 448.5629263282508) rotate(0 -33.735713519602996 -45.596423925866134)"><path d="M-56.91 -59.75 C-64.83 -71.93, -67.46 -76.85, -70.07 -90.06 M-60.9 -62.74 C-62.12 -73.08, -68.28 -82.46, -70.42 -90.49" stroke="#a61e4d" stroke-width="2" fill="none"></path></g></g><g stroke-linecap="round"><g transform="translate(204.91103104203944 457.4576845311715) rotate(0 -40.900390026122324 -2.034789935753338)"><path d="M-1.48 -0.07 C-15.06 -1.1, -68.52 -3.38, -81.92 -4 M2.91 -2.58 C-11.09 -3.36, -70.19 -0.91, -84.71 -0.61" stroke="#a61e4d" stroke-width="2" fill="none"></path></g><g transform="translate(204.91103104203944 457.4576845311715) rotate(0 -40.900390026122324 -2.034789935753338)"><path d="M-56.96 -13.19 C-65.22 -10.25, -72.81 -2.86, -87.48 -1.45 M-58.33 -10.08 C-63.56 -10.89, -71.12 -4.66, -83.3 -0.03" stroke="#a61e4d" stroke-width="2" fill="none"></path></g><g transform="translate(204.91103104203944 457.4576845311715) rotate(0 -40.900390026122324 -2.034789935753338)"><path d="M-56.32 7.32 C-65.08 4.43, -72.85 6, -87.48 -1.45 M-57.69 10.43 C-63.29 5.06, -71 6.73, -83.3 -0.03" stroke="#a61e4d" stroke-width="2" fill="none"></path></g></g><g stroke-linecap="round"><g transform="translate(206 459.62762678425156) rotate(0 -40.50635773722081 47.97190389319371)"><path d="M2.48 1.97 C-10.67 18.33, -67.41 80.4, -81.69 95.37 M0.38 0.57 C-12.82 16.35, -69.19 75.59, -83.49 91.12" stroke="#a61e4d" stroke-width="2" fill="none"></path></g><g transform="translate(206 459.62762678425156) rotate(0 -40.50635773722081 47.97190389319371)"><path d="M-68.9 64.68 C-72.64 68.24, -80.08 75.06, -80.42 94.94 M-71.14 64.61 C-76.17 73.19, -79.25 86.74, -82.14 92.53" stroke="#a61e4d" stroke-width="2" fill="none"></path></g><g transform="translate(206 459.62762678425156) rotate(0 -40.50635773722081 47.97190389319371)"><path d="M-53.92 78.7 C-60.38 79.71, -70.83 83.72, -80.42 94.94 M-56.16 78.64 C-67.25 81.51, -76.22 89.55, -82.14 92.53" stroke="#a61e4d" stroke-width="2" fill="none"></path></g></g><g transform="translate(614 52.5) rotate(0 70 28)"><text x="0" y="21" font-family="Virgil, Segoe UI Emoji" font-size="20px" fill="#495057" text-anchor="start" style="white-space: pre;" direction="ltr">先判断是否重复</text><text x="0" y="49" font-family="Virgil, Segoe UI Emoji" font-size="20px" fill="#495057" text-anchor="start" style="white-space: pre;" direction="ltr">然后交给队列</text></g><g transform="translate(991 47.5) rotate(0 100.5 28)"><text x="100.5" y="21" font-family="Virgil, Segoe UI Emoji" font-size="20px" fill="#0b7285" text-anchor="middle" style="white-space: pre;" direction="ltr">将需要调度的内容</text><text x="100.5" y="49" font-family="Virgil, Segoe UI Emoji" font-size="20px" fill="#0b7285" text-anchor="middle" style="white-space: pre;" direction="ltr">通过引擎发送给下载器</text></g><g transform="translate(939 423.5) rotate(0 150.5 14)"><text x="0" y="21" font-family="Virgil, Segoe UI Emoji" font-size="20px" fill="#e67700" text-anchor="start" style="white-space: pre;" direction="ltr">将处理好的数据交给引擎进行分配</text></g><g transform="translate(183 233.5) rotate(0 90 42)"><text x="90" y="21" font-family="Virgil, Segoe UI Emoji" font-size="20px" fill="#862e9c" text-anchor="middle" style="white-space: pre;" direction="ltr">如果是一个 URL</text><text x="90" y="49" font-family="Virgil, Segoe UI Emoji" font-size="20px" fill="#862e9c" text-anchor="middle" style="white-space: pre;" direction="ltr">就会重新提交给引擎</text><text x="90" y="77" font-family="Virgil, Segoe UI Emoji" font-size="20px" fill="#862e9c" text-anchor="middle" style="white-space: pre;" direction="ltr">并分配到调度器</text></g><g transform="translate(416.5 421.5) rotate(0 160.5 14)"><text x="160.5" y="21" font-family="Virgil, Segoe UI Emoji" font-size="20px" fill="#087f5b" text-anchor="middle" style="white-space: pre;" direction="ltr">将需要保存的数据交给管道进行保存</text></g></svg>